<svg width="112" height="112" viewBox="0 0 112 112" fill="none" xmlns="http://www.w3.org/2000/svg">
<path d="M110.325 69.5425C102.843 99.5585 72.4317 117.805 42.4586 110.322C12.4417 102.84 -5.80467 72.4304 1.67789 42.4577C9.16001 12.4417 39.5269 -5.80467 69.5438 1.67789C99.5169 9.11627 117.807 39.526 110.325 69.5425Z" fill="url(#paint0_linear)"/>
<path d="M82.6634 49.0219C83.7572 41.5844 78.1134 37.5594 70.3259 34.8906L72.8634 24.7844L66.7384 23.2531L64.2884 33.0969C62.6697 32.7031 61.0072 32.3094 59.3447 31.9594L61.7947 22.0719L55.6697 20.5406L53.1759 30.6031C51.8197 30.2969 50.5072 29.9906 49.2384 29.6844V29.6406L40.7509 27.5406L39.1322 34.1031C39.1322 34.1031 43.6822 35.1531 43.5947 35.1969C46.0884 35.8094 46.5259 37.4719 46.4384 38.7844L43.5509 50.2906C43.7259 50.3344 43.9447 50.3781 44.2072 50.5094C43.9884 50.4656 43.7697 50.4219 43.5509 50.3344L39.5259 66.4344C39.2197 67.1781 38.4322 68.3156 36.7259 67.8781C36.7697 67.9656 32.2634 66.7844 32.2634 66.7844L29.2009 73.8281L37.2072 75.8406C38.6947 76.2344 40.1384 76.5844 41.5822 76.9781L39.0447 87.1719L45.1697 88.7031L47.7072 78.5969C49.3697 79.0344 51.0322 79.4719 52.6072 79.8656L50.1134 89.9281L56.2384 91.4594L58.7759 81.2656C69.2759 83.2344 77.1509 82.4469 80.4322 72.9531C83.1009 65.3406 80.3009 60.9219 74.7884 58.0344C78.8572 57.1156 81.8759 54.4469 82.6634 49.0219ZM68.6197 68.7094C66.7384 76.3219 53.8759 72.2094 49.7197 71.1594L53.0884 57.6406C57.2447 58.6906 70.6322 60.7469 68.6197 68.7094ZM70.5447 48.8906C68.7947 55.8469 58.1197 52.3031 54.6634 51.4281L57.7259 39.1781C61.1822 40.0531 72.3384 41.6719 70.5447 48.8906Z" fill="white"/>
<defs>
<linearGradient id="paint0_linear" x1="55.9699" y1="-0.0267426" x2="55.9699" y2="111.989" gradientUnits="userSpaceOnUse">
<stop stop-color="#F9AA4B"/>
<stop offset="1" stop-color="#F7931A"/>
</linearGradient>
</defs>
</svg>
