<svg width="36" height="36" viewBox="0 0 36 36" fill="none" xmlns="http://www.w3.org/2000/svg">
<path d="M32.565 13.935L26.565 7.935C26.4251 7.79515 26.2591 7.6842 26.0764 7.60851C25.8936 7.53282 25.6978 7.49387 25.5 7.49387C25.1005 7.49387 24.7175 7.65255 24.435 7.935C24.1525 8.21746 23.9939 8.60055 23.9939 9C23.9939 9.39946 24.1525 9.78255 24.435 10.065L27.885 13.5H10.5C10.1022 13.5 9.72065 13.658 9.43934 13.9393C9.15804 14.2206 9 14.6022 9 15C9 15.3978 9.15804 15.7794 9.43934 16.0607C9.72065 16.342 10.1022 16.5 10.5 16.5H31.5C31.7961 16.4985 32.0852 16.4094 32.3308 16.2439C32.5764 16.0784 32.7675 15.8439 32.88 15.57C32.9949 15.2968 33.0263 14.9958 32.9702 14.7048C32.9141 14.4138 32.7731 14.1459 32.565 13.935V13.935ZM25.5 19.5H4.5C4.20386 19.5015 3.91479 19.5906 3.66921 19.7561C3.42363 19.9216 3.23253 20.1561 3.12 20.43C3.00513 20.7032 2.97375 21.0042 3.02981 21.2952C3.08587 21.5862 3.22686 21.8541 3.435 22.065L9.435 28.065C9.57445 28.2056 9.74035 28.3172 9.92314 28.3933C10.1059 28.4695 10.302 28.5087 10.5 28.5087C10.698 28.5087 10.8941 28.4695 11.0769 28.3933C11.2597 28.3172 11.4256 28.2056 11.565 28.065C11.7056 27.9256 11.8172 27.7597 11.8933 27.5769C11.9695 27.3941 12.0087 27.198 12.0087 27C12.0087 26.802 11.9695 26.6059 11.8933 26.4231C11.8172 26.2403 11.7056 26.0744 11.565 25.935L8.115 22.5H25.5C25.8978 22.5 26.2794 22.342 26.5607 22.0607C26.842 21.7794 27 21.3978 27 21C27 20.6022 26.842 20.2206 26.5607 19.9393C26.2794 19.658 25.8978 19.5 25.5 19.5Z" fill="white"/>
</svg>
