<svg width="197" height="48" viewBox="0 0 197 48" fill="none" xmlns="http://www.w3.org/2000/svg">
<path d="M18.144 12.536V16.92H12.192V35H6.72V16.92H0.768V12.536H18.144ZM26.3623 20.12C27.0023 19.1387 27.8023 18.3707 28.7623 17.816C29.7223 17.24 30.7889 16.952 31.9623 16.952V22.744H30.4583C29.0929 22.744 28.0689 23.0427 27.3863 23.64C26.7036 24.216 26.3623 25.24 26.3623 26.712V35H20.8903V17.144H26.3623V20.12ZM33.4898 26.04C33.4898 24.2053 33.8311 22.5947 34.5138 21.208C35.2178 19.8213 36.1671 18.7547 37.3618 18.008C38.5564 17.2613 39.8898 16.888 41.3618 16.888C42.6204 16.888 43.7191 17.144 44.6578 17.656C45.6178 18.168 46.3538 18.84 46.8658 19.672V17.144H52.3378V35H46.8658V32.472C46.3324 33.304 45.5858 33.976 44.6258 34.488C43.6871 35 42.5884 35.256 41.3298 35.256C39.8791 35.256 38.5564 34.8827 37.3618 34.136C36.1671 33.368 35.2178 32.2907 34.5138 30.904C33.8311 29.496 33.4898 27.8747 33.4898 26.04ZM46.8658 26.072C46.8658 24.7067 46.4818 23.6293 45.7138 22.84C44.9671 22.0507 44.0498 21.656 42.9618 21.656C41.8738 21.656 40.9458 22.0507 40.1778 22.84C39.4311 23.608 39.0578 24.6747 39.0578 26.04C39.0578 27.4053 39.4311 28.4933 40.1778 29.304C40.9458 30.0933 41.8738 30.488 42.9618 30.488C44.0498 30.488 44.9671 30.0933 45.7138 29.304C46.4818 28.5147 46.8658 27.4373 46.8658 26.072ZM55.2085 26.072C55.2085 24.216 55.5818 22.5947 56.3285 21.208C57.0965 19.8213 58.1525 18.7547 59.4965 18.008C60.8618 17.2613 62.4192 16.888 64.1685 16.888C66.4085 16.888 68.2752 17.4747 69.7685 18.648C71.2832 19.8213 72.2752 21.4747 72.7445 23.608H66.9205C66.4298 22.2427 65.4805 21.56 64.0725 21.56C63.0698 21.56 62.2698 21.9547 61.6725 22.744C61.0752 23.512 60.7765 24.6213 60.7765 26.072C60.7765 27.5227 61.0752 28.6427 61.6725 29.432C62.2698 30.2 63.0698 30.584 64.0725 30.584C65.4805 30.584 66.4298 29.9013 66.9205 28.536H72.7445C72.2752 30.6267 71.2832 32.2693 69.7685 33.464C68.2538 34.6587 66.3872 35.256 64.1685 35.256C62.4192 35.256 60.8618 34.8827 59.4965 34.136C58.1525 33.3893 57.0965 32.3227 56.3285 30.936C55.5818 29.5493 55.2085 27.928 55.2085 26.072ZM86.5835 35L81.1435 27.512V35H75.6715V11.32H81.1435V24.408L86.5515 17.144H93.3035L85.8795 26.104L93.3675 35H86.5835Z" fill="white"/>
<path d="M94.5247 23.736C94.5247 21.5173 95.0048 19.544 95.9648 17.816C96.9248 16.0667 98.2581 14.712 99.9648 13.752C101.693 12.7707 103.645 12.28 105.821 12.28C108.487 12.28 110.77 12.984 112.669 14.392C114.567 15.8 115.837 17.72 116.477 20.152H110.461C110.013 19.2133 109.373 18.4987 108.541 18.008C107.73 17.5173 106.802 17.272 105.757 17.272C104.071 17.272 102.706 17.8587 101.661 19.032C100.615 20.2053 100.093 21.7733 100.093 23.736C100.093 25.6987 100.615 27.2667 101.661 28.44C102.706 29.6133 104.071 30.2 105.757 30.2C106.802 30.2 107.73 29.9547 108.541 29.464C109.373 28.9733 110.013 28.2587 110.461 27.32H116.477C115.837 29.752 114.567 31.672 112.669 33.08C110.77 34.4667 108.487 35.16 105.821 35.16C103.645 35.16 101.693 34.68 99.9648 33.72C98.2581 32.7387 96.9248 31.384 95.9648 29.656C95.0048 27.928 94.5247 25.9547 94.5247 23.736ZM125.3 20.12C125.94 19.1387 126.74 18.3707 127.7 17.816C128.66 17.24 129.726 16.952 130.9 16.952V22.744H129.396C128.03 22.744 127.006 23.0427 126.324 23.64C125.641 24.216 125.3 25.24 125.3 26.712V35H119.828V17.144H125.3V20.12ZM136.267 15.288C135.307 15.288 134.518 15.0107 133.899 14.456C133.302 13.88 133.003 13.176 133.003 12.344C133.003 11.4907 133.302 10.7867 133.899 10.232C134.518 9.656 135.307 9.368 136.267 9.368C137.206 9.368 137.974 9.656 138.571 10.232C139.19 10.7867 139.499 11.4907 139.499 12.344C139.499 13.176 139.19 13.88 138.571 14.456C137.974 15.0107 137.206 15.288 136.267 15.288ZM138.987 17.144V35H133.515V17.144H138.987ZM148.425 19.672C148.958 18.84 149.694 18.168 150.633 17.656C151.571 17.144 152.67 16.888 153.929 16.888C155.401 16.888 156.734 17.2613 157.929 18.008C159.123 18.7547 160.062 19.8213 160.745 21.208C161.449 22.5947 161.801 24.2053 161.801 26.04C161.801 27.8747 161.449 29.496 160.745 30.904C160.062 32.2907 159.123 33.368 157.929 34.136C156.734 34.8827 155.401 35.256 153.929 35.256C152.691 35.256 151.593 35 150.633 34.488C149.694 33.976 148.958 33.3147 148.425 32.504V43.512H142.953V17.144H148.425V19.672ZM156.233 26.04C156.233 24.6747 155.849 23.608 155.081 22.84C154.334 22.0507 153.406 21.656 152.297 21.656C151.209 21.656 150.281 22.0507 149.513 22.84C148.766 23.6293 148.393 24.7067 148.393 26.072C148.393 27.4373 148.766 28.5147 149.513 29.304C150.281 30.0933 151.209 30.488 152.297 30.488C153.385 30.488 154.313 30.0933 155.081 29.304C155.849 28.4933 156.233 27.4053 156.233 26.04ZM174.624 30.36V35H171.84C169.856 35 168.309 34.52 167.2 33.56C166.09 32.5787 165.536 30.9893 165.536 28.792V21.688H163.36V17.144H165.536V12.792H171.008V17.144H174.592V21.688H171.008V28.856C171.008 29.3893 171.136 29.7733 171.392 30.008C171.648 30.2427 172.074 30.36 172.672 30.36H174.624ZM185.8 35.256C184.05 35.256 182.472 34.8827 181.064 34.136C179.677 33.3893 178.578 32.3227 177.768 30.936C176.978 29.5493 176.584 27.928 176.584 26.072C176.584 24.2373 176.989 22.6267 177.799 21.24C178.61 19.832 179.72 18.7547 181.128 18.008C182.536 17.2613 184.114 16.888 185.864 16.888C187.613 16.888 189.192 17.2613 190.6 18.008C192.008 18.7547 193.117 19.832 193.928 21.24C194.738 22.6267 195.144 24.2373 195.144 26.072C195.144 27.9067 194.728 29.528 193.896 30.936C193.085 32.3227 191.965 33.3893 190.536 34.136C189.128 34.8827 187.549 35.256 185.8 35.256ZM185.8 30.52C186.845 30.52 187.73 30.136 188.456 29.368C189.202 28.6 189.576 27.5013 189.576 26.072C189.576 24.6427 189.213 23.544 188.488 22.776C187.784 22.008 186.909 21.624 185.864 21.624C184.797 21.624 183.912 22.008 183.208 22.776C182.504 23.5227 182.152 24.6213 182.152 26.072C182.152 27.5013 182.493 28.6 183.176 29.368C183.88 30.136 184.754 30.52 185.8 30.52Z" fill="#F89E33"/>
</svg>
